<svg width="300" height="200" viewBox="0 0 300 200" xmlns="http://www.w3.org/2000/svg">
    <defs>
        <linearGradient id="functionGradient" x1="0%" y1="0%" x2="100%" y2="0%">
            <stop offset="0%" style="stop-color:#e91e63;stop-opacity:1" />
            <stop offset="100%" style="stop-color:#9c27b0;stop-opacity:1" />
        </linearGradient>
        <linearGradient id="approxGradient" x1="0%" y1="0%" x2="100%" y2="0%">
            <stop offset="0%" style="stop-color:#4caf50;stop-opacity:1" />
            <stop offset="100%" style="stop-color:#8bc34a;stop-opacity:1" />
        </linearGradient>
    </defs>
    
    <!-- Coordinate system -->
    <line x1="20" y1="150" x2="280" y2="150" stroke="#666" stroke-width="1.5"/>
    <line x1="150" y1="30" x2="150" y2="170" stroke="#666" stroke-width="1.5"/>
    
    <!-- Axis labels -->
    <text x="275" y="145" font-family="Arial" font-size="14" fill="#666">x</text>
    <text x="155" y="35" font-family="Arial" font-size="14" fill="#666">y</text>
    
    <!-- Original function curve -->
    <path d="M 40,120 C 70,40 120,30 150,50 C 180,70 230,130 260,90" stroke="url(#functionGradient)" fill="none" stroke-width="3"/>
    
    <!-- Taylor approximation (1st order) -->
    <path d="M 100,100 L 200,30" stroke="url(#approxGradient)" fill="none" stroke-width="2" stroke-dasharray="5,5"/>
    
    <!-- Taylor approximation (2nd order) -->
    <path d="M 80,110 Q 150,30 220,70" stroke="url(#approxGradient)" fill="none" stroke-width="2.5" stroke-dasharray="3,3"/>
    
    <!-- Center point -->
    <circle cx="150" cy="50" r="5" fill="#166088"/>
    <text x="160" y="45" font-family="Arial" font-size="12" fill="#166088">f(a)</text>
    
    <!-- Point a on x-axis -->
    <circle cx="150" cy="150" r="3" fill="#666"/>
    <text x="145" y="165" font-family="Arial" font-size="12" fill="#666">a</text>
    
    <!-- Legend -->
    <rect x="40" y="180" width="12" height="3" fill="url(#functionGradient)"/>
    <text x="60" y="183" font-family="Arial" font-size="10" fill="#666">Funzione originale</text>
    
    <rect x="170" y="180" width="12" height="3" fill="url(#approxGradient)"/>
    <text x="190" y="183" font-family="Arial" font-size="10" fill="#666">Approssimazione</text>
</svg>